<svg width="26" height="27" viewBox="0 0 26 27" fill="none" xmlns="http://www.w3.org/2000/svg">
<path d="M12 9.44V12.77" stroke="white" stroke-width="1.5" stroke-miterlimit="10" stroke-linecap="round"/>
<path d="M12.02 5C8.34001 5 5.36 7.98 5.36 11.66V13.76C5.36 14.44 5.08 15.46 4.73 16.04L3.46 18.16C2.68 19.47 3.22 20.93 4.66 21.41C9.44 23 14.61 23 19.39 21.41C20.74 20.96 21.32 19.38 20.59 18.16L19.32 16.04C18.97 15.46 18.69 14.43 18.69 13.76V11.66C18.68 8 15.68 5 12.02 5Z" stroke="white" stroke-width="1.5" stroke-miterlimit="10" stroke-linecap="round"/>
<path d="M15.33 21.82C15.33 23.65 13.83 25.15 12 25.15C11.09 25.15 10.25 24.77 9.65 24.17C9.05 23.57 8.67 22.73 8.67 21.82" stroke="white" stroke-width="1.5" stroke-miterlimit="10"/>
<circle cx="19" cy="7" r="7" fill="#FF0000"/>
</svg>
